<?xml version="1.0" standalone="no"?><!DOCTYPE svg PUBLIC "-//W3C//DTD SVG 1.1//EN" "http://www.w3.org/Graphics/SVG/1.1/DTD/svg11.dtd"><svg t="1590566610862" class="icon" viewBox="0 0 1024 1024" version="1.1" xmlns="http://www.w3.org/2000/svg" p-id="2212" xmlns:xlink="http://www.w3.org/1999/xlink" width="200" height="200"><defs><style type="text/css"></style></defs><path d="M599.04 1024H424.96a32 32 0 0 1-32-32v-118.4a312.96 312.96 0 0 1-52.48-21.76L256 935.68a32.64 32.64 0 0 1-22.4 9.6 32.64 32.64 0 0 1-22.4-9.6l-122.88-123.52a30.72 30.72 0 0 1 0-44.8l83.84-83.84a312.96 312.96 0 0 1-21.76-52.48H32a32 32 0 0 1-32-32V424.96a32 32 0 0 1 32-32h118.4a312.96 312.96 0 0 1 21.76-52.48L88.32 256a30.72 30.72 0 0 1 0-44.8l123.52-122.88a32 32 0 0 1 44.8 0l83.84 83.84a336.64 336.64 0 0 1 52.48-21.76V32a32 32 0 0 1 32-32h174.08a32 32 0 0 1 32 32v118.4a336.64 336.64 0 0 1 52.48 21.76L768 88.32a32.64 32.64 0 0 1 22.4-9.6 32.64 32.64 0 0 1 22.4 9.6l123.52 123.52a30.72 30.72 0 0 1 0 44.8l-84.48 83.84a312.96 312.96 0 0 1 21.76 52.48h118.4a32 32 0 0 1 32 32v174.08a32 32 0 0 1-32 32h-118.4a312.96 312.96 0 0 1-21.76 52.48L935.68 768a30.72 30.72 0 0 1 0 44.8l-123.52 123.52a32 32 0 0 1-44.8 0l-83.84-83.84a336.64 336.64 0 0 1-52.48 21.76v117.76a32 32 0 0 1-32 32z m-142.08-64h110.08v-110.08a32.64 32.64 0 0 1 24.32-31.36 300.16 300.16 0 0 0 81.28-33.92 32.64 32.64 0 0 1 39.04 5.12l78.08 78.08 78.08-78.08-78.08-78.08a32.64 32.64 0 0 1-5.12-39.04 284.16 284.16 0 0 0 33.92-81.28 32.64 32.64 0 0 1 31.36-24.32H960V456.96h-110.08a32.64 32.64 0 0 1-31.36-24.32 284.16 284.16 0 0 0-33.92-81.28 32.64 32.64 0 0 1 5.12-39.04l78.08-78.08-78.08-78.08-78.08 78.08a32.64 32.64 0 0 1-39.04 5.12 300.16 300.16 0 0 0-81.28-33.92 32.64 32.64 0 0 1-24.32-31.36V64H456.96v110.08a32.64 32.64 0 0 1-24.32 31.36 300.16 300.16 0 0 0-81.28 33.92 32.64 32.64 0 0 1-39.04-5.12L234.24 156.16 156.16 234.24l78.08 78.08a32.64 32.64 0 0 1 5.12 39.04 284.16 284.16 0 0 0-33.92 81.28 32.64 32.64 0 0 1-31.36 24.32H64v110.08h110.08a32.64 32.64 0 0 1 31.36 24.32 284.16 284.16 0 0 0 33.92 81.28 32.64 32.64 0 0 1-5.12 39.04l-78.08 78.08 78.08 78.08 78.08-78.08a32.64 32.64 0 0 1 39.04-5.12 291.84 291.84 0 0 0 81.28 33.92 32.64 32.64 0 0 1 24.32 31.36z" p-id="2213"></path><path d="M512 675.2A163.2 163.2 0 1 1 675.2 512 163.84 163.84 0 0 1 512 675.2z m0-262.4A99.2 99.2 0 1 0 611.2 512 99.84 99.84 0 0 0 512 412.8z" p-id="2214"></path></svg>