<?xml version="1.0" standalone="no"?><!DOCTYPE svg PUBLIC "-//W3C//DTD SVG 1.1//EN" "http://www.w3.org/Graphics/SVG/1.1/DTD/svg11.dtd"><svg t="1590569029737" class="icon" viewBox="0 0 1024 1024" version="1.1" xmlns="http://www.w3.org/2000/svg" p-id="3029" xmlns:xlink="http://www.w3.org/1999/xlink" width="200" height="200"><defs><style type="text/css"></style></defs><path d="M213.333333 298.666667H128a42.666667 42.666667 0 0 1 0-85.333334h85.333333a42.666667 42.666667 0 0 1 0 85.333334zM896 298.666667H384a42.666667 42.666667 0 0 1 0-85.333334h512a42.666667 42.666667 0 0 1 0 85.333334zM213.333333 554.666667H128a42.666667 42.666667 0 0 1 0-85.333334h85.333333a42.666667 42.666667 0 0 1 0 85.333334zM896 554.666667H384a42.666667 42.666667 0 0 1 0-85.333334h512a42.666667 42.666667 0 0 1 0 85.333334zM213.333333 810.666667H128a42.666667 42.666667 0 0 1 0-85.333334h85.333333a42.666667 42.666667 0 0 1 0 85.333334zM896 810.666667H384a42.666667 42.666667 0 0 1 0-85.333334h512a42.666667 42.666667 0 0 1 0 85.333334z" p-id="3030"></path></svg>